<?xml version="1.0" encoding="utf-8"?>
<!-- Generator: Adobe Illustrator 24.0.2, SVG Export Plug-In . SVG Version: 6.00 Build 0)  -->
<svg version="1.1" id="レイヤー_1" xmlns="http://www.w3.org/2000/svg" xmlns:xlink="http://www.w3.org/1999/xlink" x="0px"
	 y="0px" viewBox="0 0 1000 1000" style="enable-background:new 0 0 1000 1000;" xml:space="preserve">
<style type="text/css">
	.st0{display:none;opacity:0.6;}
	.st1{display:inline;fill:#231815;}
	.st2{fill:#29ABE2;}
	.st3{fill:#F3C58C;}
	.st4{opacity:0.2;fill:#040000;}
	.st5{fill:#F9EAD8;}
	.st6{opacity:0.14;fill:#040000;}
	.st7{fill:#323333;}
</style>
<g>
	<g>
		<g class="st0">
			<circle class="st1" cx="505.25" cy="505.25" r="451.79"/>
		</g>
		<circle class="st2" cx="494.75" cy="494.75" r="451.79"/>
	</g>
	<path class="st3" d="M496.83,75.55l-2.08,155.25l56.59,113.16c0.48,1.18,1.05,2.31,1.7,3.38v0.02l47.26,94.5l-160.46,40.11
		c0.86,3.76,1.32,7.69,1.32,11.73c0,22.82-14.56,42.26-34.92,49.49l48.9,146.74c101.18-4.2,189.63-61.84,217.55-143.1l1.98,0.69
		c-28.14,81.87-117.05,140.03-218.83,144.47l38.62,115.87c111.01-0.27,214.72-59.99,270.76-156.03l1.81,1.05
		c-27.38,46.92-66.61,86.26-113.49,113.77c-47.97,28.16-102.84,43.12-158.78,43.31v24.17c17.88-0.06,35.85-1.51,53.42-4.33
		l0.34,2.06c-17.67,2.84-35.74,4.31-53.75,4.37v24.17c17.97-0.04,35.93-1.39,53.44-4.01l0.29,2.06
		c-17.59,2.65-35.66,4.01-53.73,4.06v24.17c17.88-0.04,35.85-1.3,53.44-3.76l0.29,2.1c-17.69,2.46-35.74,3.72-53.73,3.76v25.22
		c226.27,0,411.28-180.23,418.95-404.68c-6.81,21.98-27.65,37.99-52.26,37.99c-29.55,0-53.58-24.04-53.58-53.58
		c0-103.13-53.21-203.05-138.88-260.76l1.18-1.74c86.24,58.08,139.8,158.67,139.8,262.5c0,28.39,23.09,51.48,51.48,51.48
		c28.89,0,52.39-22.95,52.53-51.23v-0.25C913.4,263.72,726.67,76.66,496.83,75.55z"/>
	<path class="st4" d="M676.91,238.47c81.01,58.42,130.94,155.31,130.94,255.23c0,29.55,24.04,53.58,53.58,53.58
		c15.19,0,28.96-6.09,38.85-15.95c-8.24,19.63-28.45,32.97-51.29,31.77c-28.37-1.49-50.2-25.76-48.73-54.11
		c5.42-103.2-42.34-205.97-124.69-268.57L676.91,238.47z"/>
	<path class="st4" d="M748.84,674.48c-68.46,80-178.09,110.66-262.23,109.9l4.85,14.54l2.98,8.93
		c101.64-0.25,197.17-50.35,255.57-132.51c3.38-4.73,6.62-9.58,9.73-14.52C756.26,665.52,752.62,670.08,748.84,674.48z"/>
	<path class="st5" d="M443.26,692.27c-75.98,0-145.9-28.85-191.85-79.14l1.55-1.41c45.56,49.84,114.9,78.44,190.3,78.44
		c3.24,0,6.47-0.06,9.69-0.17l-65.69-197.04l209.97-52.49L492.65,231.26v-0.25l2.08-155.48C293.31,75.53,124.61,218.33,84.56,408
		c7.56-13.45,21.96-22.53,38.45-22.53c24.33,0,44.13,19.79,44.13,44.13h-2.1c0-23.18-18.85-42.03-42.03-42.03
		c-19.33,0-35.68,13.13-40.54,30.93c-0.48,2.54-0.92,5.09-1.34,7.65c-0.19,1.16-0.38,2.29-0.55,3.45
		c-3.34,21.22-5.06,42.99-5.06,65.14c0,18.87,1.26,37.47,3.7,55.69l0.13,1.16c0.46,3.45,0.99,6.87,1.55,10.28v0.02
		c-0.02,0.02-0.02,0.02,0,0.04c5,17.61,21.22,30.53,40.43,30.53c23.18,0,42.03-18.85,42.03-42.03h2.1
		c0,24.33-19.79,44.13-44.13,44.13c-16.68,0-31.25-9.31-38.75-23.03c36.04,193.95,206.06,341.43,410.06,342.42v-104.9l-39-116.96
		C450.2,692.21,446.73,692.27,443.26,692.27z"/>
	<path class="st6" d="M161.56,568.53l1.81,0.82c0,23.18-18.85,42.03-42.03,42.03c-13.89,0-26.22-6.77-33.87-17.19
		c-1.83-7.48-3.47-15.02-4.88-22.65c7.5,13.72,22.06,23.03,38.75,23.03C139.22,594.56,154.66,583.86,161.56,568.53z"/>
	<path class="st6" d="M96.01,494.18c0,1.15,0.07,2.28,0.19,3.4c10.26-17.83,26.93-23.46,37.58-25.2c-1.61-3.66-3.88-6.96-6.67-9.73
		C109.93,462.87,96.01,476.93,96.01,494.18z"/>
	<g>
		<path class="st7" d="M423.3,227.87h-2.1c0-23.17-18.85-42.03-42.03-42.03s-42.03,18.85-42.03,42.03h-2.1
			c0-24.33,19.8-44.13,44.13-44.13S423.3,203.54,423.3,227.87z"/>
		<path class="st7" d="M421.2,232.08c-2.32,0-4.2-1.88-4.2-4.2c0-20.86-16.97-37.82-37.82-37.82s-37.82,16.97-37.82,37.82
			c0,2.32-1.88,4.2-4.2,4.2h-2.1c-2.32,0-4.2-1.88-4.2-4.2c0-26.65,21.68-48.33,48.33-48.33s48.33,21.68,48.33,48.33
			c0,2.32-1.88,4.2-4.2,4.2H421.2z"/>
	</g>
	<path class="st7" d="M601.92,333.99c0,14.5-11.77,26.27-26.27,26.27c-9.62,0-18.03-5.19-22.61-12.9v-0.02
		c-0.65-1.07-1.22-2.21-1.7-3.38c-1.26-3.07-1.95-6.43-1.95-9.96c0-14.5,11.77-26.27,26.27-26.27S601.92,319.49,601.92,333.99z"/>
	<g>
		<path class="st7" d="M96.01,494.18c0,17.4,14.16,31.56,31.56,31.56v2.1c-18.55,0-33.66-15.11-33.66-33.66
			c0-17.65,13.68-32.19,30.99-33.56c-5.44-4.45-12.42-7.14-20-7.14v-2.1c18.55,0,33.66,15.11,33.66,33.66h-2.1
			c0-8.74-3.59-16.68-9.35-22.4C109.93,462.87,96.01,476.93,96.01,494.18z"/>
		<path class="st7" d="M127.58,532.05c-20.88,0-37.87-16.99-37.87-37.87c0-15.71,9.81-29.47,23.75-35.12
			c-2.75-0.9-5.64-1.38-8.56-1.38c-2.32,0-4.2-1.88-4.2-4.2v-2.1c0-2.32,1.88-4.2,4.2-4.2c20.88,0,37.87,16.99,37.87,37.87
			c0,2.32-1.88,4.2-4.2,4.2h-2.1c-2.32,0-4.2-1.88-4.2-4.2c0-6.73-2.43-13.1-6.88-18.12c-14.03,1.11-25.17,12.98-25.17,27.26
			c0,15.08,12.27,27.36,27.36,27.36c2.32,0,4.2,1.88,4.2,4.2v2.1C131.78,530.16,129.9,532.05,127.58,532.05z"/>
	</g>
	<g>
		<path class="st7" d="M494.75,920.27c-101.56,0-199.95-36.5-277.06-102.79C141.46,751.95,90.68,661.61,74.7,563.11
			c-0.04-0.17-0.06-0.34-0.08-0.51c-0.47-2.9-1.05-6.65-1.55-10.42c0,0-0.01-0.09-0.02-0.13v0c-2.55-18.91-3.84-38.19-3.84-57.3
			c0-23.37,1.92-46.82,5.71-69.7c0.43-2.57,0.87-5.15,1.36-7.72c17.78-96.43,69.22-184.59,144.82-248.22
			c76.53-64.41,173.71-99.88,273.63-99.88c0.62,0,1.24,0,1.85,0.02l0.25,0c112.88,0.54,219.06,44.97,299.01,125.1
			c79.95,80.14,124.14,186.45,124.42,299.35v1.06C920.27,729.38,729.38,920.27,494.75,920.27z M498.95,909.74
			c216.51-2.11,392.47-167.36,409.45-381.35c-10.94,14.16-28.28,23.09-46.97,23.09c-31.86,0-57.79-25.92-57.79-57.79
			c0-101.76-52.5-200.34-137.02-257.27c-0.92-0.62-1.56-1.59-1.78-2.68c-0.21-1.1,0.02-2.23,0.64-3.15l1.18-1.74
			c0.81-1.2,2.14-1.85,3.49-1.85c0.81,0,1.62,0.23,2.34,0.72c87.38,58.85,141.66,160.77,141.66,265.99
			c0,26.07,21.21,47.28,47.28,47.28c26.51,0,48.2-21.11,48.33-47.05v-0.23c-0.56-225.76-183.55-410.58-408.79-413.9l-2.01,150.04
			l56.13,112.25c0.05,0.09,0.09,0.18,0.13,0.28c0.41,1,0.88,1.94,1.41,2.8c0.11,0.18,0.21,0.37,0.29,0.57l47.14,94.26
			c0.57,1.14,0.59,2.48,0.06,3.64c-0.53,1.16-1.56,2.01-2.8,2.32l-156.61,39.15c0.44,2.84,0.66,5.73,0.66,8.61
			c0,22.58-13.46,42.95-33.88,51.92l46.64,139.95c99.09-5.21,183.49-61.23,210.6-140.12c0.36-1.06,1.13-1.93,2.14-2.42
			c0.58-0.28,1.2-0.42,1.83-0.42c0.47,0,0.94,0.08,1.39,0.24l1.98,0.69c2.18,0.77,3.33,3.15,2.58,5.33
			c-28.21,82.07-115.03,140.64-217.08,147.01l35.91,107.74c108.38-1.34,209.36-60.11,264.11-153.92c0.78-1.34,2.19-2.08,3.63-2.08
			c0.72,0,1.44,0.18,2.11,0.57l1.81,1.05c0.96,0.56,1.67,1.48,1.95,2.56c0.29,1.08,0.13,2.23-0.43,3.19
			c-27.75,47.55-67.51,87.41-115,115.27c-47.39,27.82-101.49,42.94-156.7,43.85v15.76c16.31-0.26,32.62-1.68,48.55-4.24
			c0.23-0.04,0.45-0.05,0.67-0.05c2.02,0,3.81,1.47,4.14,3.53l0.34,2.06c0.18,1.1-0.09,2.23-0.74,3.14
			c-0.65,0.9-1.64,1.51-2.74,1.69c-16.52,2.65-33.39,4.12-50.22,4.39v15.77c16.37-0.23,32.7-1.55,48.61-3.93
			c0.21-0.03,0.42-0.05,0.62-0.05c0.9,0,1.78,0.29,2.51,0.83c0.9,0.67,1.49,1.67,1.65,2.77l0.3,2.06c0.33,2.29-1.25,4.41-3.53,4.75
			c-16.45,2.47-33.3,3.84-50.16,4.07v15.76c16.31-0.21,32.66-1.45,48.65-3.69c0.2-0.03,0.39-0.04,0.59-0.04
			c2.06,0,3.86,1.52,4.16,3.62l0.3,2.1c0.16,1.1-0.13,2.23-0.81,3.12c-0.67,0.89-1.67,1.48-2.78,1.63
			c-16.48,2.29-33.32,3.56-50.11,3.77V909.74z M90.15,587.33c42.33,185.52,206.86,319.51,398.3,322.37v-99.97l-37.8-113.35
			c-2.46,0.06-4.94,0.09-7.38,0.09c-77.14,0-148.2-29.34-194.95-80.5c-0.76-0.83-1.15-1.92-1.1-3.04c0.05-1.12,0.55-2.16,1.38-2.92
			l1.55-1.41c0.8-0.73,1.81-1.09,2.82-1.09c1.14,0,2.27,0.46,3.1,1.37c44.77,48.98,113,77.08,187.2,77.08c1.27,0,2.57-0.01,3.9-0.03
			l-63.89-191.65c-0.37-1.11-0.26-2.33,0.3-3.35c0.56-1.03,1.53-1.77,2.67-2.06l204.88-51.22L488.89,233.14
			c-0.29-0.58-0.44-1.23-0.44-1.88l2.02-151.51C302.98,81.68,138.72,211.44,92.59,392.09c8.48-6.88,19.19-10.82,30.43-10.82
			c26.65,0,48.33,21.68,48.33,48.33c0,2.32-1.88,4.2-4.2,4.2h-2.1c-2.32,0-4.2-1.88-4.2-4.2c0-20.86-16.97-37.82-37.82-37.82
			c-16.96,0-31.92,11.37-36.44,27.68c-0.46,2.45-0.89,4.91-1.29,7.38l-0.07,0.41c-0.16,0.99-0.32,1.97-0.47,2.96
			c-3.33,21.18-5.02,42.87-5.02,64.54c0,18.42,1.23,36.97,3.66,55.13l0.14,1.26c0.42,3.1,0.92,6.39,1.51,9.95
			c4.7,16.01,19.58,27.17,36.3,27.17c20.86,0,37.82-16.97,37.82-37.82c0-2.32,1.88-4.2,4.2-4.2h2.1c2.32,0,4.2,1.88,4.2,4.2
			c0,26.65-21.68,48.33-48.33,48.33C109.73,598.76,98.74,594.6,90.15,587.33z"/>
		<path class="st7" d="M496.85,73.45h-0.4c-0.57-0.02-1.13-0.02-1.7-0.02c-206.16,0-378.2,148.82-414.32,344.68
			c-0.48,2.54-0.92,5.09-1.34,7.63c-3.72,22.46-5.65,45.52-5.65,69.01c0,19.25,1.3,38.18,3.8,56.74c0,0.04,0,0.11,0.02,0.15
			c0.46,3.55,1.01,7.08,1.58,10.59c-0.02,0.02,0,0.04,0,0.04c32.4,200.34,206.56,353.8,415.92,353.8
			c232.33,0,421.32-189,421.32-421.32v-1.05C915.5,262.55,727.87,74.56,496.85,73.45z M79.23,550.43
			c-2.44-18.22-3.7-36.82-3.7-55.69c0-22.15,1.72-43.92,5.06-65.14c0.17-1.16,0.36-2.29,0.55-3.45c0.42-2.56,0.86-5.11,1.34-7.65
			c4.85-17.8,21.2-30.93,40.54-30.93c23.18,0,42.03,18.85,42.03,42.03h2.1c0-24.33-19.79-44.13-44.13-44.13
			c-16.5,0-30.89,9.08-38.45,22.53C124.61,218.33,293.31,75.53,494.73,75.53l-2.08,155.48v0.25l104.58,209.21l-209.97,52.49
			L452.95,690c-3.21,0.11-6.45,0.17-9.69,0.17c-75.4,0-144.74-28.6-190.3-78.44l-1.55,1.41c45.96,50.29,115.87,79.14,191.85,79.14
			c3.47,0,6.93-0.06,10.38-0.19l39,116.96v104.9c-204-0.99-374.02-148.46-410.06-342.42c7.5,13.72,22.06,23.03,38.75,23.03
			c24.33,0,44.13-19.79,44.13-44.13h-2.1c0,23.18-18.85,42.03-42.03,42.03c-19.21,0-35.43-12.92-40.43-30.53
			c-0.02-0.02-0.02-0.02,0-0.04v-0.02c-0.57-3.4-1.09-6.83-1.55-10.28 M913.97,493.95c-0.15,28.28-23.64,51.23-52.53,51.23
			c-28.39,0-51.48-23.09-51.48-51.48c0-103.83-53.56-204.42-139.8-262.5l-1.18,1.74c85.67,57.7,138.88,157.62,138.88,260.76
			c0,29.55,24.04,53.58,53.58,53.58c24.61,0,45.45-16.01,52.26-37.99c-7.67,224.45-192.67,404.68-418.95,404.68v-25.22
			c17.99-0.04,36.04-1.3,53.73-3.76l-0.29-2.1c-17.59,2.46-35.55,3.72-53.44,3.76v-24.17c18.07-0.04,36.14-1.41,53.73-4.06
			l-0.29-2.06c-17.5,2.63-35.47,3.97-53.44,4.01v-24.17c18.01-0.06,36.08-1.53,53.75-4.37l-0.34-2.06
			c-17.57,2.82-35.53,4.27-53.42,4.33v-24.17c55.94-0.19,110.8-15.15,158.78-43.31c46.88-27.51,86.11-66.84,113.49-113.77
			l-1.81-1.05c-56.04,96.03-159.74,155.75-270.76,156.03l-38.62-115.87c101.79-4.43,190.7-62.6,218.83-144.47l-1.98-0.69
			c-27.93,81.26-116.37,138.9-217.55,143.1l-48.9-146.74c20.36-7.23,34.92-26.67,34.92-49.49c0-4.03-0.46-7.96-1.32-11.73
			l160.46-40.11l-47.26-94.5v-0.02c-0.65-1.07-1.22-2.21-1.7-3.38L494.75,230.8l2.08-155.25C726.67,76.66,913.4,263.72,913.97,493.7
			V493.95z"/>
	</g>
</g>
</svg>
