<?xml version="1.0" encoding="utf-8"?>
<!-- Generator: Adobe Illustrator 24.1.1, SVG Export Plug-In . SVG Version: 6.00 Build 0)  -->
<svg version="1.1" id="レイヤー_1" xmlns="http://www.w3.org/2000/svg" xmlns:xlink="http://www.w3.org/1999/xlink" x="0px"
	 y="0px" width="500px" height="500px" viewBox="0 0 500 500" enable-background="new 0 0 500 500" xml:space="preserve">
<g>
	<g>
		<g opacity="0.6">
			<circle fill="#231815" cx="252.9" cy="252.9" r="247.1"/>
		</g>
		<circle fill="#FFFFFF" cx="247.1" cy="247.1" r="247.1"/>
	</g>
	<path fill="#FFFFFF" d="M248.3,17.8l-1.1,84.9l31,61.9c0.3,0.6,0.6,1.3,0.9,1.9v0l25.9,51.7l-87.8,21.9c0.5,2.1,0.7,4.2,0.7,6.4
		c0,12.5-8,23.1-19.1,27.1l26.7,80.3c55.3-2.3,103.7-33.8,119-78.3l1.1,0.4c-15.4,44.8-64,76.6-119.7,79l21.1,63.4
		c60.7-0.1,117.4-32.8,148.1-85.3l1,0.6c-15,25.7-36.4,47.2-62.1,62.2c-26.2,15.4-56.3,23.6-86.9,23.7v13.2c9.8,0,19.6-0.8,29.2-2.4
		l0.2,1.1c-9.7,1.6-19.6,2.4-29.4,2.4v13.2c9.8,0,19.7-0.8,29.2-2.2l0.2,1.1c-9.6,1.4-19.5,2.2-29.4,2.2v13.2
		c9.8,0,19.6-0.7,29.2-2.1l0.2,1.1c-9.7,1.3-19.6,2-29.4,2.1v13.8c123.8,0,225-98.6,229.2-221.4c-3.7,12-15.1,20.8-28.6,20.8
		c-16.2,0-29.3-13.1-29.3-29.3c0-56.4-29.1-111.1-76-142.6l0.6-1c47.2,31.8,76.5,86.8,76.5,143.6c0,15.5,12.6,28.2,28.2,28.2
		c15.8,0,28.7-12.6,28.7-28v-0.1C476.1,120.8,374,18.4,248.3,17.8z"/>
	<path opacity="0.2" fill="#040000" d="M346.8,106.9c44.3,32,71.6,85,71.6,139.6c0,16.2,13.1,29.3,29.3,29.3
		c8.3,0,15.8-3.3,21.3-8.7c-4.5,10.7-15.6,18-28.1,17.4c-15.5-0.8-27.5-14.1-26.7-29.6c3-56.4-23.2-112.7-68.2-146.9L346.8,106.9z"
		/>
	<path opacity="0.2" fill="#040000" d="M386.1,345.4c-37.4,43.8-97.4,60.5-143.4,60.1l2.7,8l1.6,4.9c55.6-0.1,107.9-27.5,139.8-72.5
		c1.9-2.6,3.6-5.2,5.3-7.9C390.2,340.5,388.2,343,386.1,345.4z"/>
	<path fill="#FFFFFF" d="M219,355.2c-41.6,0-79.8-15.8-104.9-43.3l0.9-0.8C139.8,338.4,177.7,354,219,354c1.8,0,3.5,0,5.3-0.1
		l-35.9-107.8l114.9-28.7L246,103v-0.1l1.1-85c-110.2,0-202.4,78.1-224.4,181.9c4.1-7.4,12-12.3,21-12.3c13.3,0,24.1,10.8,24.1,24.1
		h-1.1c0-12.7-10.3-23-23-23c-10.6,0-19.5,7.2-22.2,16.9c-0.3,1.4-0.5,2.8-0.7,4.2c-0.1,0.6-0.2,1.3-0.3,1.9
		c-1.8,11.6-2.8,23.5-2.8,35.6c0,10.3,0.7,20.5,2,30.5l0.1,0.6c0.3,1.9,0.5,3.8,0.9,5.6v0c0,0,0,0,0,0c2.7,9.6,11.6,16.7,22.1,16.7
		c12.7,0,23-10.3,23-23H67c0,13.3-10.8,24.1-24.1,24.1c-9.1,0-17.1-5.1-21.2-12.6C41.4,395.2,134.4,475.9,246,476.4V419l-21.3-64
		C222.8,355.1,220.9,355.2,219,355.2z"/>
	<path opacity="0.14" fill="#040000" d="M64.9,287.5l1,0.4c0,12.7-10.3,23-23,23c-7.6,0-14.3-3.7-18.5-9.4c-1-4.1-1.9-8.2-2.7-12.4
		c4.1,7.5,12.1,12.6,21.2,12.6C52.7,301.7,61.1,295.9,64.9,287.5z"/>
	<path opacity="0.14" fill="#040000" d="M29,246.8c0,0.6,0,1.2,0.1,1.9c5.6-9.8,14.7-12.8,20.6-13.8c-0.9-2-2.1-3.8-3.7-5.3
		C36.6,229.7,29,237.4,29,246.8z"/>
	<g>
		<path fill="#323333" d="M208,101.1h-1.1c0-12.7-10.3-23-23-23c-12.7,0-23,10.3-23,23h-1.1c0-13.3,10.8-24.1,24.1-24.1
			S208,87.8,208,101.1z"/>
		<path fill="#323333" d="M206.9,103.4c-1.3,0-2.3-1-2.3-2.3c0-11.4-9.3-20.7-20.7-20.7s-20.7,9.3-20.7,20.7c0,1.3-1,2.3-2.3,2.3
			h-1.1c-1.3,0-2.3-1-2.3-2.3c0-14.6,11.9-26.4,26.4-26.4c14.6,0,26.4,11.9,26.4,26.4c0,1.3-1,2.3-2.3,2.3H206.9z"/>
	</g>
	<path fill="#323333" d="M305.7,159.2c0,7.9-6.4,14.4-14.4,14.4c-5.3,0-9.9-2.8-12.4-7.1v0c-0.4-0.6-0.7-1.2-0.9-1.9
		c-0.7-1.7-1.1-3.5-1.1-5.4c0-7.9,6.4-14.4,14.4-14.4S305.7,151.3,305.7,159.2z"/>
	<g>
		<path fill="#323333" d="M29,246.8c0,9.5,7.7,17.3,17.3,17.3v1.1c-10.1,0-18.4-8.3-18.4-18.4c0-9.7,7.5-17.6,17-18.4
			c-3-2.4-6.8-3.9-10.9-3.9v-1.1c10.1,0,18.4,8.3,18.4,18.4h-1.1c0-4.8-2-9.1-5.1-12.3C36.6,229.7,29,237.4,29,246.8z"/>
		<path fill="#323333" d="M46.3,267.5c-11.4,0-20.7-9.3-20.7-20.7c0-8.6,5.4-16.1,13-19.2c-1.5-0.5-3.1-0.8-4.7-0.8
			c-1.3,0-2.3-1-2.3-2.3v-1.1c0-1.3,1-2.3,2.3-2.3c11.4,0,20.7,9.3,20.7,20.7c0,1.3-1,2.3-2.3,2.3h-1.1c-1.3,0-2.3-1-2.3-2.3
			c0-3.7-1.3-7.2-3.8-9.9c-7.7,0.6-13.8,7.1-13.8,14.9c0,8.3,6.7,15,15,15c1.3,0,2.3,1,2.3,2.3v1.1
			C48.6,266.5,47.6,267.5,46.3,267.5z"/>
	</g>
	<g>
		<path fill="#323333" d="M247.1,479.9c-55.6,0-109.4-20-151.5-56.2c-41.7-35.8-69.5-85.3-78.2-139.1c0-0.1,0-0.2,0-0.3
			c-0.3-1.6-0.6-3.6-0.8-5.7c0,0,0,0,0-0.1v0c-1.4-10.3-2.1-20.9-2.1-31.3c0-12.8,1.1-25.6,3.1-38.1c0.2-1.4,0.5-2.8,0.7-4.2
			C28,152,56.1,103.8,97.5,69c41.9-35.2,95-54.6,149.7-54.6c0.3,0,0.7,0,1,0l0.1,0C310,14.7,368.1,39,411.8,82.8
			c43.7,43.8,67.9,102,68.1,163.7v0.6C479.9,375.5,375.5,479.9,247.1,479.9z M249.4,474.1c118.4-1.2,214.7-91.5,224-208.6
			c-6,7.7-15.5,12.6-25.7,12.6c-17.4,0-31.6-14.2-31.6-31.6c0-55.7-28.7-109.6-75-140.7c-0.5-0.3-0.9-0.9-1-1.5
			c-0.1-0.6,0-1.2,0.4-1.7l0.6-1c0.4-0.7,1.2-1,1.9-1c0.4,0,0.9,0.1,1.3,0.4c47.8,32.2,77.5,87.9,77.5,145.5
			c0,14.3,11.6,25.9,25.9,25.9c14.5,0,26.4-11.5,26.4-25.7v-0.1C473.8,123.1,373.7,22,250.5,20.1l-1.1,82.1l30.7,61.4
			c0,0.1,0,0.1,0.1,0.2c0.2,0.5,0.5,1.1,0.8,1.5c0.1,0.1,0.1,0.2,0.2,0.3l25.8,51.6c0.3,0.6,0.3,1.4,0,2c-0.3,0.6-0.9,1.1-1.5,1.3
			l-85.7,21.4c0.2,1.6,0.4,3.1,0.4,4.7c0,12.3-7.4,23.5-18.5,28.4l25.5,76.6c54.2-2.8,100.4-33.5,115.2-76.6
			c0.2-0.6,0.6-1.1,1.2-1.3c0.3-0.2,0.7-0.2,1-0.2c0.3,0,0.5,0,0.8,0.1l1.1,0.4c1.2,0.4,1.8,1.7,1.4,2.9
			c-15.4,44.9-62.9,76.9-118.7,80.4l19.6,58.9c59.3-0.7,114.5-32.9,144.5-84.2c0.4-0.7,1.2-1.1,2-1.1c0.4,0,0.8,0.1,1.2,0.3l1,0.6
			c0.5,0.3,0.9,0.8,1.1,1.4c0.2,0.6,0.1,1.2-0.2,1.7c-15.2,26-36.9,47.8-62.9,63.1c-25.9,15.2-55.5,23.5-85.7,24v8.6
			c8.9-0.1,17.8-0.9,26.6-2.3c0.1,0,0.2,0,0.4,0c1.1,0,2.1,0.8,2.3,1.9l0.2,1.1c0.1,0.6,0,1.2-0.4,1.7c-0.4,0.5-0.9,0.8-1.5,0.9
			c-9,1.5-18.3,2.3-27.5,2.4v8.6c9-0.1,17.9-0.8,26.6-2.2c0.1,0,0.2,0,0.3,0c0.5,0,1,0.2,1.4,0.5c0.5,0.4,0.8,0.9,0.9,1.5l0.2,1.1
			c0.2,1.3-0.7,2.4-1.9,2.6c-9,1.4-18.2,2.1-27.4,2.2v8.6c8.9-0.1,17.9-0.8,26.6-2c0.1,0,0.2,0,0.3,0c1.1,0,2.1,0.8,2.3,2l0.2,1.1
			c0.1,0.6-0.1,1.2-0.4,1.7c-0.4,0.5-0.9,0.8-1.5,0.9c-9,1.3-18.2,1.9-27.4,2.1V474.1z M25.8,297.8C49,399.3,139,472.5,243.7,474.1
			v-54.7l-20.7-62c-1.3,0-2.7,0.1-4,0.1c-42.2,0-81.1-16.1-106.6-44c-0.4-0.5-0.6-1-0.6-1.7c0-0.6,0.3-1.2,0.8-1.6l0.9-0.8
			c0.4-0.4,1-0.6,1.5-0.6c0.6,0,1.2,0.3,1.7,0.7c24.5,26.8,61.8,42.2,102.4,42.2c0.7,0,1.4,0,2.1,0l-34.9-104.8
			c-0.2-0.6-0.1-1.3,0.2-1.8c0.3-0.6,0.8-1,1.5-1.1l112.1-28L243.9,104c-0.2-0.3-0.2-0.7-0.2-1l1.1-82.9
			C142.2,21.2,52.4,92.2,27.1,191c4.6-3.8,10.5-5.9,16.6-5.9c14.6,0,26.4,11.9,26.4,26.4c0,1.3-1,2.3-2.3,2.3h-1.1
			c-1.3,0-2.3-1-2.3-2.3c0-11.4-9.3-20.7-20.7-20.7c-9.3,0-17.5,6.2-19.9,15.1c-0.3,1.3-0.5,2.7-0.7,4l0,0.2
			c-0.1,0.5-0.2,1.1-0.3,1.6c-1.8,11.6-2.7,23.5-2.7,35.3c0,10.1,0.7,20.2,2,30.2l0.1,0.7c0.2,1.7,0.5,3.5,0.8,5.4
			c2.6,8.8,10.7,14.9,19.9,14.9c11.4,0,20.7-9.3,20.7-20.7c0-1.3,1-2.3,2.3-2.3H67c1.3,0,2.3,1,2.3,2.3c0,14.6-11.9,26.4-26.4,26.4
			C36.5,304,30.5,301.7,25.8,297.8z"/>
		<path fill="#323333" d="M248.3,16.7h-0.2c-0.3,0-0.6,0-0.9,0c-112.8,0-206.9,81.4-226.6,188.5c-0.3,1.4-0.5,2.8-0.7,4.2
			c-2,12.3-3.1,24.9-3.1,37.7c0,10.5,0.7,20.9,2.1,31c0,0,0,0.1,0,0.1c0.3,1.9,0.6,3.9,0.9,5.8c0,0,0,0,0,0
			c17.7,109.6,113,193.5,227.5,193.5c127.1,0,230.5-103.4,230.5-230.5v-0.6C477.3,120.1,374.6,17.3,248.3,16.7z M19.8,277.6
			c-1.3-10-2-20.1-2-30.5c0-12.1,0.9-24,2.8-35.6c0.1-0.6,0.2-1.3,0.3-1.9c0.2-1.4,0.5-2.8,0.7-4.2c2.7-9.7,11.6-16.9,22.2-16.9
			c12.7,0,23,10.3,23,23h1.1c0-13.3-10.8-24.1-24.1-24.1c-9,0-16.9,5-21,12.3C44.7,95.9,136.9,17.8,247.1,17.8l-1.1,85v0.1
			l57.2,114.4l-114.9,28.7l35.9,107.8c-1.8,0.1-3.5,0.1-5.3,0.1c-41.2,0-79.2-15.6-104.1-42.9l-0.9,0.8
			c25.1,27.5,63.4,43.3,104.9,43.3c1.9,0,3.8,0,5.7-0.1l21.3,64v57.4c-111.6-0.5-204.6-81.2-224.3-187.3
			c4.1,7.5,12.1,12.6,21.2,12.6c13.3,0,24.1-10.8,24.1-24.1h-1.1c0,12.7-10.3,23-23,23c-10.5,0-19.4-7.1-22.1-16.7c0,0,0,0,0,0v0
			c-0.3-1.9-0.6-3.7-0.9-5.6 M476.4,246.7c-0.1,15.5-12.9,28-28.7,28c-15.5,0-28.2-12.6-28.2-28.2c0-56.8-29.3-111.8-76.5-143.6
			l-0.6,1c46.9,31.6,76,86.2,76,142.6c0,16.2,13.1,29.3,29.3,29.3c13.5,0,24.9-8.8,28.6-20.8c-4.2,122.8-105.4,221.4-229.2,221.4
			v-13.8c9.8,0,19.7-0.7,29.4-2.1l-0.2-1.1c-9.6,1.3-19.4,2-29.2,2.1v-13.2c9.9,0,19.8-0.8,29.4-2.2l-0.2-1.1
			c-9.6,1.4-19.4,2.2-29.2,2.2v-13.2c9.9,0,19.7-0.8,29.4-2.4l-0.2-1.1c-9.6,1.5-19.4,2.3-29.2,2.4v-13.2
			c30.6-0.1,60.6-8.3,86.9-23.7c25.6-15,47.1-36.6,62.1-62.2l-1-0.6c-30.7,52.5-87.4,85.2-148.1,85.3L225.8,355
			c55.7-2.4,104.3-34.2,119.7-79l-1.1-0.4c-15.3,44.4-63.7,76-119,78.3l-26.7-80.3c11.1-4,19.1-14.6,19.1-27.1
			c0-2.2-0.3-4.4-0.7-6.4l87.8-21.9L279,166.5v0c-0.4-0.6-0.7-1.2-0.9-1.9l-31-61.9l1.1-84.9C374,18.4,476.1,120.8,476.4,246.6
			V246.7z"/>
	</g>
</g>
</svg>
