<?xml version="1.0" encoding="utf-8"?>
<!-- Generator: Adobe Illustrator 24.1.1, SVG Export Plug-In . SVG Version: 6.00 Build 0)  -->
<svg version="1.1" xmlns="http://www.w3.org/2000/svg" xmlns:xlink="http://www.w3.org/1999/xlink" x="0px" y="0px" width="500px"
	 height="500px" viewBox="0 0 500 500" enable-background="new 0 0 500 500" xml:space="preserve">
	<path d="M250,160.8l65.4,99.6H184.6L250,160.8L250,160.8z M500,250c0,138-112,250-250,250S0,388,0,250S112,0,250,0
		S500,112,500,250z M399.4,333.4L250,108.4l-149.4,225h30.6l33.9-52.1h170l33.9,52.1H399.4z"/>
	<path display="inline" d="M392.7,185.4c4.4,0,8.1-3.6,8.1-8.1v-26.9c0-4.4-3.6-8.1-8.1-8.1h-13.5V110
		c0-17.8-14.5-32.3-32.3-32.3H131.5c-17.8,0-32.3,14.5-32.3,32.3V390c0,17.8,14.5,32.3,32.3,32.3h215.4c17.8,0,32.3-14.5,32.3-32.3
		v-32.3h13.5c4.4,0,8.1-3.6,8.1-8.1v-26.9c0-4.4-3.6-8.1-8.1-8.1h-13.5v-43.1h13.5c4.4,0,8.1-3.6,8.1-8.1v-26.9
		c0-4.4-3.6-8.1-8.1-8.1h-13.5v-43.1H392.7z M239.2,163.8c23.8,0,43.1,19.3,43.1,43.1S263,250,239.2,250s-43.1-19.3-43.1-43.1
		S215.5,163.8,239.2,163.8z M314.6,323.2c0,7.1-6.7,12.9-15.1,12.9H178.9c-8.3,0-15.1-5.8-15.1-12.9v-12.9
		c0-21.4,20.3-38.8,45.2-38.8h3.4c8.3,3.4,17.3,5.4,26.8,5.4s18.6-2,26.8-5.4h3.4c25,0,45.2,17.4,45.2,38.8V323.2z"/>
</svg>
