<?xml version="1.0" encoding="utf-8"?>
<!-- Generator: Adobe Illustrator 24.1.1, SVG Export Plug-In . SVG Version: 6.00 Build 0)  -->
<svg version="1.1" id="レイヤー_1" xmlns="http://www.w3.org/2000/svg" xmlns:xlink="http://www.w3.org/1999/xlink" x="0px"
	 y="0px" width="500px" height="500px" viewBox="0 0 500 500" enable-background="new 0 0 500 500" xml:space="preserve">
<g>
	<g>
		<path fill="#323333" d="M250,500c-33.7,0-66.5-6.6-97.3-19.7c-29.8-12.6-56.5-30.6-79.5-53.6c-23-23-41-49.7-53.6-79.5
			C6.6,316.5,0,283.7,0,250s6.6-66.5,19.7-97.3c12.6-29.8,30.6-56.5,53.6-79.5c23-23,49.7-41,79.5-53.6C183.5,6.6,216.3,0,250,0
			s66.5,6.6,97.3,19.7c29.8,12.6,56.5,30.6,79.5,53.6c23,23,41,49.7,53.6,79.5c13,30.8,19.7,63.6,19.7,97.3s-6.6,66.5-19.7,97.3
			c-12.6,29.8-30.6,56.5-53.6,79.5c-23,23-49.7,41-79.5,53.6C316.5,493.4,283.7,500,250,500z"/>
		<path fill="#FFFFFF" d="M250,490.3c-32.4,0-63.9-6.4-93.5-18.9c-28.6-12.1-54.3-29.4-76.4-51.5c-22.1-22.1-39.4-47.8-51.5-76.4
			C16.1,313.9,9.7,282.4,9.7,250s6.4-63.9,18.9-93.5c12.1-28.6,29.4-54.3,51.5-76.4c22.1-22.1,47.8-39.4,76.4-51.5
			C186.1,16.1,217.6,9.7,250,9.7s63.9,6.4,93.5,18.9c28.6,12.1,54.3,29.4,76.4,51.5c22.1,22.1,39.4,47.8,51.5,76.4
			c12.5,29.6,18.9,61.1,18.9,93.5s-6.4,63.9-18.9,93.5c-12.1,28.6-29.4,54.3-51.5,76.4c-22.1,22.1-47.8,39.4-76.4,51.5
			C313.9,483.9,282.4,490.3,250,490.3z"/>
		<circle fill="#323333" cx="250" cy="250" r="232.5"/>
	</g>
	<g>
		<path fill="#FFFFFF" d="M106.9,212.8l-4.1,0.6c0.1-11-6.2-23.4-22.4-27.1c-9.2-2.1-23.4,1.7-27,17.4c-3.6,15.9,7.1,28.8,21.5,32.1
			c8.7,2,15.8,0.1,17-4.8c1.1-4.7-3.6-11.9-16.9-16l-10.7-3.2c-0.7,1.1-2.3,1.8-3.9,1.4c-1.3-0.3-3.3-1.9-2.6-5
			c0.5-2.2,2-3.6,4.5-2.9l14.3,4.3c15.1,4.5,21.7,12.7,19.5,22.4c-1.8,8-10.9,12.2-22.2,9.6c-18.8-4.3-28.7-21-24.5-39.4
			c4.2-18.3,19.9-25.1,32.4-22.2C100.7,184.4,107.6,200.9,106.9,212.8z"/>
		<path fill="#FFFFFF" d="M140.8,148.9c-6.4,8-14,7.6-26.7-0.4c-3.6-2.2-5.9-2.2-8,0.6c-0.9,1.1-1.8,2.7-2.7,4.6
			c3.6,7.2,8.2,16.1,13.7,27l-5.4,2.5c-20.5-40.7-25.3-49.3-27.8-52.9c-1.1,0.4-2.4,0.1-3.2-0.6c-1.2-1-2.3-3.1-0.6-5.3
			c1.3-1.7,3.8-2.9,6.4-0.8c2.4,1.9,5.5,7.6,14.4,25.4c1-1.8,2-3.4,3-4.6c3.8-4.7,7.7-4.5,12.6-1.4c11.7,7.1,17.2,8,21.2,3
			c5.2-6.5,2.6-16.3-13.1-29l3.9-4.9C145.9,125.9,149.1,138.5,140.8,148.9z"/>
		<path fill="#FFFFFF" d="M206.3,82.5c-6,0-12.3-1.1-19.1-4.6c0.8,1.3,1.5,2.7,2.1,4.1c7.5,15.8,6.4,30.8-7.9,37.6
			c-10.2,4.9-20.2,3.4-25.9-8.5c-3.9-8.2-4.3-20.7-2.3-33.3l-12.6,7c-2.6,1.5-4.1,0.2-4.9-1.6c-1.2-2.6,0.6-4.5,2.7-5.4
			c1.9-0.9,3.6-0.6,4.9,1l10.9-6.2c1.5-0.9,3.5-0.1,4.1,1.2c0.2,0.5,0.2,1,0.1,1.7c-2.5,11.8-1.8,23.5,2.2,31.8
			c3.8,8,10.5,12.2,18.1,8.5c11-5.2,12-19.3,5.5-33c-2.5-5.3-5.9-10.5-9.9-14.7c-0.5-0.4-3.5-3.7-3.7-3.6c-1.6,0.8-3.4-0.3-4.2-1.9
			c-1-2.1-0.2-4.2,2.2-5.3c2.2-1,3.8-0.4,6.3,3.1c9.3,13.2,22.2,17.2,31.7,17.6L206.3,82.5z M189.3,63.5c-5.9-1.8-13.9-7.1-15.3-10
			c-0.6-1.3,0.1-2.6,1.3-3.3c1.5-0.7,2.9,0,3.6,1.5c0.2,0.5,0.3,1,0.4,1.6c2.7,2.3,8.8,5.7,11.5,6.8L189.3,63.5z M194.5,56.9
			c-5.6-1.7-13-6.7-14.4-9.6c-0.7-1.4,0.1-2.6,1.3-3.3c1.5-0.7,2.9-0.1,3.6,1.5c0.2,0.5,0.4,1,0.4,1.6c2.6,2.3,8.1,5.4,10.6,6.3
			L194.5,56.9z"/>
		<path fill="#FFFFFF" d="M237,82.6c-5.9-0.1-9.8-3.9-9.7-12.1l0.4-21.8c-1.1-0.5-2.3-1.7-2.3-3.5c0-1.7,1.2-3.6,4.5-3.6
			c2.7,0,4,1.5,3.9,3.6l-0.4,25.5c-0.1,4.8,1.6,7,4.5,7c3.3,0.1,8.1-3.1,13.1-8.3l3.9,3.8C248.5,79.7,242.2,82.6,237,82.6z
			 M241.1,104.1l-2-4.4c14.1-1.8,29.7-8,30.1-31.7l0.3-18.7c-1.1-0.5-2.3-1.7-2.3-3.6c0-1.6,1.2-3.6,4.5-3.6c2.7,0,3.9,1.5,3.9,3.6
			l-0.4,22.4C274.7,94.3,257.5,101.9,241.1,104.1z"/>
		<path fill="#FFFFFF" d="M347.9,129.6l-2.1-0.7c-1,1.2-2.6,2.2-4.6,1.2c-5.8-2.9-12.9-23.8-9.6-45.2
			c-10.5,13.2-25.2,19.8-45.6,19.7l-0.8-3.8c19.2-0.6,33.6-8.3,43.3-21.9l-24.6-12.2l1.8-3.7l25.1,12.4c1.1-1.7,2-3.5,3-5.4l5.4-11
			c0.4-0.9,1.8-1.3,3.7-0.3c1.8,0.9,2.3,2.2,1.9,3.1l-5.4,11c-0.9,1.9-2,3.7-3,5.4L357,88.4c1.2-1.5,3.1-2,5.3-0.9
			c2.6,1.3,3.5,3.5,2.4,5.7c-0.9,1.9-2.5,2.3-5,1.1l-24.1-11.9c-2.2,22.1,5,37.6,14.1,44.6L347.9,129.6z M353.1,83
			c-1.8-0.9-2.3-2.6-1.5-4.3c0.1-0.2,0.3-0.5,0.5-0.7c-0.1-2-1.7-8.1-3-11.6l2.8-0.8c6.2,8.9,6.8,13.4,5.6,15.7
			C356.6,83.1,354.8,83.8,353.1,83z"/>
		<path fill="#FFFFFF" d="M404.2,155.4l-21.6,16.9c-3.3,2.6-6.9,1.9-9.5-1.4c-1.4-1.8-1.5-4-0.1-5.1l0.7-0.5l-3.2-4.1l3.1-2.4
			l6.4,8.2l6.1-4.7l-17.7-22.7l-12.5,9.8l-3.6-4.6l31-24.2c0.8-0.6,1.9-0.7,3.3,1.1c1.4,1.8,1.1,2.9,0.3,3.5l-0.1,0.1l17.8,22.8
			c1.2-0.5,2.8-0.4,3.9,1.1c1.9,2.4,1.5,4.9-0.2,6.2C407.3,155.9,405.8,156.3,404.2,155.4z M393.7,156.2L376,133.5l-4.4,3.5
			l17.7,22.7L393.7,156.2z M401.2,150.3l-17.7-22.7l-4.4,3.4l17.7,22.7L401.2,150.3z M426.8,148.9l-19.7-25.3
			c-3.4,0.3-7.2,0.2-10.7-0.2c4.7,5.5,10.2,12,15.9,18.6c-0.3-2.6-0.6-5.3-1-7.4l3.2,0.2c5.1,15.5,4.3,19.9,2,21.8
			c-1.6,1.2-3.4,0.9-4.6-0.6c-1.3-1.6-1-3.5,0.2-4.5c0.1-0.1,0.4-0.3,0.5-0.3c0.2-0.8,0.2-2.4,0.1-4.3c-13.6-13.5-30-31.5-31.4-33.4
			c-0.9-1.1-0.7-1.8,2.8-5.1c1.1,1.5,4.5,5.7,9.3,11.3c3.5-0.2,7.2-0.7,9.7-1.4l-14.5-18.6l3.2-2.5l18.4,23.5l4.9-3.8
			c0.8-0.6,2-0.7,3.4,1.2c1.5,1.9,1.1,3,0.3,3.6l-4.9,3.8l13.2,16.9c1.8-0.8,3.6-0.6,5.2,1.5c1.8,2.3,1.5,4.6-0.4,6.1
			C430.1,151.3,428.5,151.1,426.8,148.9z"/>
		<path fill="#FFFFFF" d="M449.9,236.3c-11.4-19.5-27.1-36-39.8-33.3c-6.6,1.4-12,8.4-9.3,21.1c1.5,6.9,5.1,13.6,8.6,17.6l-5.3,2.8
			c-2.6-3.8-5.9-11.6-7.6-19.5c-3.5-16.5,1.9-26.5,11.7-28.6c12.5-2.7,27.6,10.8,39.2,27.7l-10.7-43.7c-0.7-2.7,0.8-4,2.6-4.4
			c3.7-0.8,4.6,2.4,4.9,3.7c0.5,2.3-0.4,3.7-2.2,4.7l12.2,50.5c0.4,1.4-0.5,2.5-1.8,2.7C451.3,237.7,450.5,237.5,449.9,236.3z"/>
	</g>
	<g>
		<path fill="#FFFFFF" d="M158.2,386.2c2.4,1.3,3.8,3.9,2,6.6c4.1-1.4,8.5-1.4,12.6,0.9c5.9,3.2,6.9,6.3,6.6,9.5
			c4-1.4,8.9-0.9,13.3,1.5c6.6,3.7,9.1,7.9-0.1,18.6l-5.9,6.8l1.5,0.8c3.3,1.8,3,4.7,1.2,6.9c-1.9,2.2-5.4,3.5-8.6,1.7l-7-3.9
			c-2.6-1.5-4.3-4.6-1.5-7.6l8.8-10.2c3-3.4,1.2-5.7-0.7-6.7c-1.9-1.1-5.1-1.6-8.1,1.8l-5.4,6.2l1.5,0.8c3.2,1.8,3,4.7,1.2,6.9
			c-1.9,2.2-5.4,3.5-8.6,1.7l-7.3-4.1c-2.6-1.5-4-4.3-1.5-7.2l9.1-10.5c3-3.4,1.2-5.7-0.7-6.7c-1.9-1.1-5.1-1.6-8,1.9l-5.4,6.2
			l1.5,0.8c3.2,1.8,3,4.7,1.2,6.9c-1.9,2.2-5.5,3.5-8.6,1.7l-14.1-7.8c-3.2-1.8-3.1-4.8-1.2-6.9c2-2.2,5.5-3.5,8.7-1.7l1.5,0.8
			l9-10.4l-1.5-0.8c-3.2-1.8-3-4.7-1.1-6.8c1.9-2.2,5.4-3.5,8.6-1.8L158.2,386.2z"/>
		<path fill="#FFFFFF" d="M243.3,412.9c3.1,0,5.8,2,5,5.8l-7.9,35.7c-2.6,11.3-10.6,15-19.2,14.9c-8.1-0.1-14.2-3.8-12.4-11.9
			c1-4.3,4.8-6.7,8.2-6.7c3.3,0,6.1,2.2,5,6.8c-0.2,0.8-0.4,1.7-0.9,2.3c0.4,0.1,0.8,0.3,1.3,0.3c2.2,0,4.2-1.5,5.2-5.8l6.8-30.4
			l-1.8,0c-3.8,0-5-2.9-4.4-5.7c0.6-2.8,3.1-5.4,6.8-5.4L243.3,412.9z M238.8,403.1c0.8-3.8,4.7-6.4,8-6.4c3.4,0,6,2.7,5.2,6.5
			c-0.9,3.9-4.7,6.3-8,6.3C240.6,409.5,237.9,407,238.8,403.1z"/>
		<path fill="#FFFFFF" d="M276.8,423.4c-3.7,0.9-5.4-1.4-5.4-4.3c-0.1-2.9,1.6-6.3,5.1-7.1l8.1-2c3.1-0.8,5.9,0.5,6.1,4.3l0.3,12.3
			c0.2,5.7,3.9,5.9,6.1,5.3c2.1-0.5,5.7-2.5,5.7-8l-0.2-6.9l-1.7,0.4c-3.6,0.9-5.4-1.5-5.4-4.3c-0.1-2.9,1.6-6.3,5.1-7.1l8.1-2
			c2.9-0.7,5.9,0.5,6.1,4.3l0.6,19.4l1.6-0.4c3.7-0.9,5.4,1.4,5.5,4.3c0.1,2.9-1.6,6.3-5.2,7.1l-8.1,2c-2.9,0.7-5.9-0.5-6-4.3l0-0.5
			c-0.1,3.8-4.2,8.3-9.2,9.5c-7.8,1.9-14.8,0.3-15.3-15.1l-0.2-7.4L276.8,423.4z"/>
		<path fill="#FFFFFF" d="M352.2,390.6l4.3-13.4c0.7-1.9,1.5-3.1,3.2-4.3l4.5-3.2c3.2-2.2,5.9-0.7,7,1.9c1.1,2.6,0.6,6.3-2.5,8.5
			l-2.4,1.7l-1.6,3.9c5.2,1.6,7,8.7,11.2,5.8c2.3-1.6,4.6,0.3,5.8,2.8c1.1,2.7,0.8,6.2-2.5,8.5c-11.6,8.1-15.3-4.5-19.2-4.9
			l-2.2,5.6l2.6,6c1.1,2.6,0.5,6.2-2.2,8.1l-7.8,5.4c-3,2.1-5.6,0.8-6.8-1.9c-1.1-2.7-0.7-6.4,2.3-8.6l1.8-1.3l-15.4-36.3l-1.4,1
			c-3,2.1-5.7,0.5-6.8-2.2c-1.1-2.6-0.7-6.2,2.4-8.3l6.9-4.8c2.5-1.7,5.7-1.7,7.2,1.8L352.2,390.6z"/>
	</g>
	<path fill="#FFFFFF" d="M250.6,120.5l-0.6,48l17.5,35c0.1,0.4,0.3,0.7,0.5,1v0l14.6,29.2L233,246.1c0.3,1.2,0.4,2.4,0.4,3.6
		c0,7.1-4.5,13.1-10.8,15.3l15.1,45.3c31.3-1.3,58.6-19.1,67.2-44.2l0.6,0.2c-8.7,25.3-36.2,43.3-67.6,44.6l11.9,35.8
		c34.3-0.1,66.4-18.5,83.7-48.2l0.6,0.3c-8.5,14.5-20.6,26.7-35.1,35.2c-14.8,8.7-31.8,13.3-49.1,13.4v7.5c5.5,0,11.1-0.5,16.5-1.3
		l0.1,0.6c-5.5,0.9-11,1.3-16.6,1.4v7.5c5.6,0,11.1-0.4,16.5-1.2l0.1,0.6c-5.4,0.8-11,1.2-16.6,1.3v7.5c5.5,0,11.1-0.4,16.5-1.2
		l0.1,0.6c-5.5,0.8-11,1.1-16.6,1.2v7.8c69.9,0,127.1-55.7,129.5-125.1c-2.1,6.8-8.5,11.7-16.1,11.7c-9.1,0-16.6-7.4-16.6-16.6
		c0-31.9-16.4-62.7-42.9-80.6l0.4-0.5c26.6,17.9,43.2,49,43.2,81.1c0,8.8,7.1,15.9,15.9,15.9c8.9,0,16.2-7.1,16.2-15.8v-0.1
		C379.4,178.6,321.7,120.8,250.6,120.5z"/>
	<path opacity="0.2" fill="#040000" d="M306.3,170.8c25,18.1,40.5,48,40.5,78.9c0,9.1,7.4,16.6,16.6,16.6c4.7,0,8.9-1.9,12-4.9
		c-2.5,6.1-8.8,10.2-15.9,9.8c-8.8-0.5-15.5-8-15.1-16.7c1.7-31.9-13.1-63.6-38.5-83L306.3,170.8z"/>
	<path opacity="0.2" fill="#040000" d="M328.5,305.5c-21.2,24.7-55,34.2-81,34l1.5,4.5l0.9,2.8c31.4-0.1,60.9-15.6,79-40.9
		c1-1.5,2-3,3-4.5C330.8,302.8,329.7,304.2,328.5,305.5z"/>
	<path fill="#FFFFFF" d="M234.1,311c-23.5,0-45.1-8.9-59.3-24.5l0.5-0.4c14.1,15.4,35.5,24.2,58.8,24.2c1,0,2,0,3-0.1l-20.3-60.9
		l64.9-16.2l-32.3-64.6v-0.1l0.6-48c-62.2,0-114.4,44.1-126.7,102.7c2.3-4.2,6.8-7,11.9-7c7.5,0,13.6,6.1,13.6,13.6h-0.6
		c0-7.2-5.8-13-13-13c-6,0-11,4.1-12.5,9.6c-0.1,0.8-0.3,1.6-0.4,2.4c-0.1,0.4-0.1,0.7-0.2,1.1c-1,6.6-1.6,13.3-1.6,20.1
		c0,5.8,0.4,11.6,1.1,17.2l0,0.4c0.1,1.1,0.3,2.1,0.5,3.2v0c0,0,0,0,0,0c1.5,5.4,6.6,9.4,12.5,9.4c7.2,0,13-5.8,13-13h0.6
		c0,7.5-6.1,13.6-13.6,13.6c-5.2,0-9.7-2.9-12-7.1c11.1,59.9,63.7,105.5,126.7,105.8v-32.4L237.3,311C236.2,311,235.2,311,234.1,311
		z"/>
	<path opacity="0.14" fill="#040000" d="M147,272.8l0.6,0.3c0,7.2-5.8,13-13,13c-4.3,0-8.1-2.1-10.5-5.3c-0.6-2.3-1.1-4.6-1.5-7
		c2.3,4.2,6.8,7.1,12,7.1C140.1,280.8,144.9,277.5,147,272.8z"/>
	<path opacity="0.14" fill="#040000" d="M126.8,249.8c0,0.4,0,0.7,0.1,1c3.2-5.5,8.3-7.2,11.6-7.8c-0.5-1.1-1.2-2.2-2.1-3
		C131.1,240.1,126.8,244.5,126.8,249.8z"/>
	<g>
		<path fill="#323333" d="M227.9,167.5h-0.6c0-7.2-5.8-13-13-13c-7.2,0-13,5.8-13,13h-0.6c0-7.5,6.1-13.6,13.6-13.6
			C221.8,153.9,227.9,160,227.9,167.5z"/>
		<path fill="#323333" d="M227.3,168.8c-0.7,0-1.3-0.6-1.3-1.3c0-6.4-5.2-11.7-11.7-11.7c-6.4,0-11.7,5.2-11.7,11.7
			c0,0.7-0.6,1.3-1.3,1.3h-0.6c-0.7,0-1.3-0.6-1.3-1.3c0-8.2,6.7-14.9,14.9-14.9c8.2,0,14.9,6.7,14.9,14.9c0,0.7-0.6,1.3-1.3,1.3
			H227.3z"/>
	</g>
	<path fill="#323333" d="M283.1,200.3c0,4.5-3.6,8.1-8.1,8.1c-3,0-5.6-1.6-7-4v0c-0.2-0.3-0.4-0.7-0.5-1c-0.4-0.9-0.6-2-0.6-3.1
		c0-4.5,3.6-8.1,8.1-8.1S283.1,195.8,283.1,200.3z"/>
	<g>
		<path fill="#323333" d="M126.8,249.8c0,5.4,4.4,9.8,9.8,9.8v0.6c-5.7,0-10.4-4.7-10.4-10.4c0-5.5,4.2-9.9,9.6-10.4
			c-1.7-1.4-3.8-2.2-6.2-2.2v-0.6c5.7,0,10.4,4.7,10.4,10.4h-0.6c0-2.7-1.1-5.2-2.9-6.9C131.1,240.1,126.8,244.5,126.8,249.8z"/>
		<path fill="#323333" d="M136.5,261.5c-6.5,0-11.7-5.2-11.7-11.7c0-4.9,3-9.1,7.3-10.9c-0.8-0.3-1.7-0.4-2.6-0.4
			c-0.7,0-1.3-0.6-1.3-1.3v-0.6c0-0.7,0.6-1.3,1.3-1.3c6.5,0,11.7,5.2,11.7,11.7c0,0.7-0.6,1.3-1.3,1.3h-0.6c-0.7,0-1.3-0.6-1.3-1.3
			c0-2.1-0.8-4-2.1-5.6c-4.3,0.3-7.8,4-7.8,8.4c0,4.7,3.8,8.5,8.5,8.5c0.7,0,1.3,0.6,1.3,1.3v0.6
			C137.8,260.9,137.3,261.5,136.5,261.5z"/>
	</g>
	<g>
		<path fill="#323333" d="M250,381.5c-31.4,0-61.8-11.3-85.6-31.8c-23.6-20.3-39.2-48.2-44.2-78.6c0-0.1,0-0.1,0-0.2
			c-0.1-0.9-0.3-2.1-0.5-3.2c0,0,0,0,0,0v0c-0.8-5.8-1.2-11.8-1.2-17.7c0-7.2,0.6-14.5,1.8-21.5c0.1-0.8,0.3-1.6,0.4-2.4
			c5.5-29.8,21.4-57,44.8-76.7c23.6-19.9,53.7-30.9,84.6-30.9c0.2,0,0.4,0,0.6,0l0.1,0c34.9,0.2,67.7,13.9,92.4,38.7
			c24.7,24.8,38.4,57.6,38.4,92.5v0.3C381.5,322.5,322.5,381.5,250,381.5z M251.3,378.2c66.9-0.7,121.3-51.7,126.5-117.8
			c-3.4,4.4-8.7,7.1-14.5,7.1c-9.8,0-17.9-8-17.9-17.9c0-31.4-16.2-61.9-42.3-79.5c-0.3-0.2-0.5-0.5-0.5-0.8c-0.1-0.3,0-0.7,0.2-1
			l0.4-0.5c0.3-0.4,0.7-0.6,1.1-0.6c0.2,0,0.5,0.1,0.7,0.2c27,18.2,43.8,49.7,43.8,82.2c0,8.1,6.6,14.6,14.6,14.6
			c8.2,0,14.9-6.5,14.9-14.5v-0.1c-0.2-69.8-56.7-126.9-126.3-127.9l-0.6,46.4l17.3,34.7c0,0,0,0.1,0,0.1c0.1,0.3,0.3,0.6,0.4,0.9
			c0,0.1,0.1,0.1,0.1,0.2l14.6,29.1c0.2,0.4,0.2,0.8,0,1.1c-0.2,0.4-0.5,0.6-0.9,0.7L234.5,247c0.1,0.9,0.2,1.8,0.2,2.7
			c0,7-4.2,13.3-10.5,16l14.4,43.2c30.6-1.6,56.7-18.9,65.1-43.3c0.1-0.3,0.4-0.6,0.7-0.7c0.2-0.1,0.4-0.1,0.6-0.1
			c0.1,0,0.3,0,0.4,0.1l0.6,0.2c0.7,0.2,1,1,0.8,1.6c-8.7,25.4-35.5,43.5-67.1,45.4l11.1,33.3c33.5-0.4,64.7-18.6,81.6-47.6
			c0.2-0.4,0.7-0.6,1.1-0.6c0.2,0,0.4,0.1,0.7,0.2l0.6,0.3c0.3,0.2,0.5,0.5,0.6,0.8c0.1,0.3,0,0.7-0.1,1
			c-8.6,14.7-20.9,27-35.5,35.6c-14.6,8.6-31.4,13.3-48.4,13.5v4.9c5-0.1,10.1-0.5,15-1.3c0.1,0,0.1,0,0.2,0c0.6,0,1.2,0.5,1.3,1.1
			l0.1,0.6c0.1,0.3,0,0.7-0.2,1s-0.5,0.5-0.8,0.5c-5.1,0.8-10.3,1.3-15.5,1.4v4.9c5.1-0.1,10.1-0.5,15-1.2c0.1,0,0.1,0,0.2,0
			c0.3,0,0.5,0.1,0.8,0.3c0.3,0.2,0.5,0.5,0.5,0.9l0.1,0.6c0.1,0.7-0.4,1.4-1.1,1.5c-5.1,0.8-10.3,1.2-15.5,1.3v4.9
			c5-0.1,10.1-0.4,15-1.1c0.1,0,0.1,0,0.2,0c0.6,0,1.2,0.5,1.3,1.1l0.1,0.6c0,0.3,0,0.7-0.2,1c-0.2,0.3-0.5,0.5-0.9,0.5
			c-5.1,0.7-10.3,1.1-15.5,1.2V378.2z M125,278.6c13.1,57.3,63.9,98.7,123.1,99.6v-30.9l-11.7-35c-0.8,0-1.5,0-2.3,0
			c-23.8,0-45.8-9.1-60.2-24.9c-0.2-0.3-0.4-0.6-0.3-0.9c0-0.3,0.2-0.7,0.4-0.9l0.5-0.4c0.2-0.2,0.6-0.3,0.9-0.3
			c0.4,0,0.7,0.1,1,0.4c13.8,15.1,34.9,23.8,57.8,23.8c0.4,0,0.8,0,1.2,0l-19.7-59.2c-0.1-0.3-0.1-0.7,0.1-1
			c0.2-0.3,0.5-0.5,0.8-0.6l63.3-15.8l-31.6-63.2c-0.1-0.2-0.1-0.4-0.1-0.6l0.6-46.8c-57.9,0.6-108.7,40.7-123,96.5
			c2.6-2.1,5.9-3.3,9.4-3.3c8.2,0,14.9,6.7,14.9,14.9c0,0.7-0.6,1.3-1.3,1.3h-0.6c-0.7,0-1.3-0.6-1.3-1.3c0-6.4-5.2-11.7-11.7-11.7
			c-5.2,0-9.9,3.5-11.3,8.6c-0.1,0.8-0.3,1.5-0.4,2.3l0,0.1c-0.1,0.3-0.1,0.6-0.1,0.9c-1,6.5-1.6,13.2-1.6,19.9
			c0,5.7,0.4,11.4,1.1,17l0,0.4c0.1,1,0.3,2,0.5,3.1c1.5,4.9,6,8.4,11.2,8.4c6.4,0,11.7-5.2,11.7-11.7c0-0.7,0.6-1.3,1.3-1.3h0.6
			c0.7,0,1.3,0.6,1.3,1.3c0,8.2-6.7,14.9-14.9,14.9C131,282.1,127.6,280.9,125,278.6z"/>
		<path fill="#323333" d="M250.6,119.8h-0.1c-0.2,0-0.4,0-0.5,0c-63.7,0-116.9,46-128,106.5c-0.1,0.8-0.3,1.6-0.4,2.4
			c-1.1,6.9-1.7,14.1-1.7,21.3c0,5.9,0.4,11.8,1.2,17.5c0,0,0,0,0,0c0.1,1.1,0.3,2.2,0.5,3.3c0,0,0,0,0,0
			c10,61.9,63.8,109.3,128.5,109.3c71.8,0,130.2-58.4,130.2-130.2v-0.3C380,178.2,322,120.2,250.6,119.8z M121.6,267.2
			c-0.8-5.6-1.1-11.4-1.1-17.2c0-6.8,0.5-13.6,1.6-20.1c0.1-0.4,0.1-0.7,0.2-1.1c0.1-0.8,0.3-1.6,0.4-2.4c1.5-5.5,6.6-9.6,12.5-9.6
			c7.2,0,13,5.8,13,13h0.6c0-7.5-6.1-13.6-13.6-13.6c-5.1,0-9.5,2.8-11.9,7c12.4-58.6,64.5-102.7,126.7-102.7l-0.6,48v0.1l32.3,64.6
			l-64.9,16.2l20.3,60.9c-1,0-2,0.1-3,0.1c-23.3,0-44.7-8.8-58.8-24.2l-0.5,0.4c14.2,15.5,35.8,24.5,59.3,24.5c1.1,0,2.1,0,3.2-0.1
			l12.1,36.1v32.4c-63-0.3-115.6-45.9-126.7-105.8c2.3,4.2,6.8,7.1,12,7.1c7.5,0,13.6-6.1,13.6-13.6h-0.6c0,7.2-5.8,13-13,13
			c-5.9,0-10.9-4-12.5-9.4c0,0,0,0,0,0v0c-0.2-1.1-0.3-2.1-0.5-3.2 M379.5,249.8c0,8.7-7.3,15.8-16.2,15.8
			c-8.8,0-15.9-7.1-15.9-15.9c0-32.1-16.6-63.2-43.2-81.1l-0.4,0.5c26.5,17.8,42.9,48.7,42.9,80.6c0,9.1,7.4,16.6,16.6,16.6
			c7.6,0,14-4.9,16.1-11.7c-2.4,69.4-59.5,125.1-129.5,125.1v-7.8c5.6,0,11.1-0.4,16.6-1.2l-0.1-0.6c-5.4,0.8-11,1.1-16.5,1.2v-7.5
			c5.6,0,11.2-0.4,16.6-1.3l-0.1-0.6c-5.4,0.8-11,1.2-16.5,1.2v-7.5c5.6,0,11.1-0.5,16.6-1.4l-0.1-0.6c-5.4,0.9-11,1.3-16.5,1.3
			v-7.5c17.3-0.1,34.2-4.7,49.1-13.4c14.5-8.5,26.6-20.7,35.1-35.2l-0.6-0.3c-17.3,29.7-49.4,48.1-83.7,48.2L238,310.9
			c31.5-1.4,58.9-19.3,67.6-44.6l-0.6-0.2c-8.6,25.1-36,42.9-67.2,44.2L222.6,265c6.3-2.2,10.8-8.2,10.8-15.3c0-1.2-0.1-2.5-0.4-3.6
			l49.6-12.4L268,204.5v0c-0.2-0.3-0.4-0.7-0.5-1l-17.5-35l0.6-48C321.7,120.8,379.4,178.6,379.5,249.8L379.5,249.8z"/>
	</g>
</g>
</svg>
