<?xml version="1.0" encoding="utf-8"?>
<!-- Generator: Adobe Illustrator 24.1.1, SVG Export Plug-In . SVG Version: 6.00 Build 0)  -->
<svg version="1.1" id="レイヤー_1" xmlns="http://www.w3.org/2000/svg" xmlns:xlink="http://www.w3.org/1999/xlink" x="0px"
	 y="0px" width="500px" height="500px" viewBox="0 0 500 500" enable-background="new 0 0 500 500" xml:space="preserve">
<path fill="#231815" d="M113.5,66.8c11.3,0,21.3,6.5,20.2,19.5c12-13,27.8-21.9,47-21.9c27.4,0,37,8.9,42.5,20.9
	c11.3-13,30.2-20.9,50.4-20.9c30.9,0,48.3,10.3,36.3,66.8l-7.5,36h6.9c15.4,0,20.2,11,17.8,22.3c-2.4,11.7-12.3,23.3-27.4,23.3
	h-32.9c-12.3,0-24.3-7.9-20.6-24.3l11.3-54.2c3.8-18.2-6.9-22.6-15.8-22.6s-21.6,4.5-25.4,22.6l-6.9,32.9h6.9
	c15.1,0,20.2,11,17.8,22.3c-2.4,11.7-12.3,23.3-27.4,23.3h-34.3c-12.3,0-23-7.5-19.5-23l11.7-55.5c3.8-18.2-6.9-22.6-15.8-22.6
	c-8.9,0-21.3,4.5-25,22.6l-6.9,32.9h6.9c15.1,0,20.2,11,17.8,22.3c-2.4,11.7-12.7,23.3-27.4,23.3H48.4c-15.1,0-20.6-11-18.2-22.3
	c2.7-11.7,12.7-23.3,27.8-23.3h6.9l11.7-54.8h-6.9c-15.1,0-19.9-11-17.5-22.3c2.4-11.7,12.3-23.3,27.1-23.3H113.5z"/>
<path fill="#231815" d="M453.2,66.8c12.7,0,24,7.9,20.6,23.7L443,236.9c-9.9,46.3-42.8,61.7-77.8,61.7c-33.3,0-58.3-14.7-51.4-48
	c3.8-17.8,19.2-27.8,33.3-27.8c13.4,0,25,8.9,20.9,27.8c-0.7,3.4-1.7,6.9-3.4,9.3c1.7,0.3,3.4,1,5.5,1c8.9,0,17.1-6.2,20.9-24
	l26.4-124.4h-7.5c-15.4,0-20.6-11.7-18.2-23.3c2.4-11.3,12.3-22.3,27.8-22.3H453.2z M434.4,26.7c3.1-15.4,18.9-26.4,32.6-26.4
	c13.7,0,24.7,11,21.6,26.4c-3.4,16.1-18.9,26.1-32.6,26.1C442.3,52.8,431,42.8,434.4,26.7z"/>
<path fill="#231815" d="M18.7,395.8c-15.4,0-20.2-10.6-17.5-22.3c2.4-11.7,12.3-23.3,27.1-23.3h34.3c13,0,23,7.9,19.9,23l-10.6,49.4
	c-4.8,23,9.6,27.1,19.2,27.1c8.9,0,25-4.5,30.5-26.1l5.8-27.8h-7.2c-15.1,0-19.9-11-17.5-22.3c2.4-11.7,12.3-23.3,27.1-23.3H164
	c12.3,0,23,7.5,19.9,23l-16.5,77.5h6.9c15.4,0,20.2,11,17.8,22.3c-2.4,11.7-12.3,23.3-27.4,23.3h-34.3c-12,0-23-7.5-19.5-23l0.3-2.1
	c-4.1,15.1-24.7,28.8-45.9,28.8c-32.9,0-59-13-45.9-74.7l6.5-29.5H18.7z"/>
<path fill="#231815" d="M312.5,391.7l45.9-34.6c6.9-4.8,12.3-6.9,20.6-6.9h22.6c15.8,0,21.3,11.7,18.9,23
	c-2.4,11.3-12.7,22.6-28.5,22.6h-12l-14.4,9.3c13.7,17.5,3.1,45.6,24,45.6c11.3,0,14.7,12,12.7,23c-2.7,11.7-12,22.6-28.5,22.6
	c-57.9,0-40.8-51.1-52.8-61.4l-20.6,13.4l-5.5,26.1c-2.4,11.3-12.7,21.9-26.4,21.9h-38.7c-15.1,0-20.6-10.6-18.2-22.3
	c2.7-11.7,12.7-23.3,27.8-23.3h8.9L282,293h-7.2c-15.1,0-20.2-11.7-17.8-23.3c2.4-11.3,12.3-22.3,27.4-22.3h34.3
	c12.3,0,23,7.9,19.9,23L312.5,391.7z"/>
</svg>
