<?xml version="1.0" encoding="utf-8"?>
<!-- Generator: Adobe Illustrator 24.1.1, SVG Export Plug-In . SVG Version: 6.00 Build 0)  -->
<svg version="1.1" id="レイヤー_1" xmlns="http://www.w3.org/2000/svg" xmlns:xlink="http://www.w3.org/1999/xlink" x="0px"
	 y="0px" width="1000px" height="1000px" viewBox="0 0 1000 1000" enable-background="new 0 0 1000 1000" xml:space="preserve">
<path d="M785.4,370.8c8.8,0,16.2-7.2,16.2-16.2v-53.8c0-8.8-7.2-16.2-16.2-16.2h-27V220c0-35.6-29-64.6-64.6-64.6H263
	c-35.6,0-64.6,29-64.6,64.6v560c0,35.6,29,64.6,64.6,64.6h430.8c35.6,0,64.6-29,64.6-64.6v-64.6h27c8.8,0,16.2-7.2,16.2-16.2v-53.8
	c0-8.8-7.2-16.2-16.2-16.2h-27V543h27c8.8,0,16.2-7.2,16.2-16.2V473c0-8.8-7.2-16.2-16.2-16.2h-27v-86.2h27V370.8z M478.4,327.6
	c47.6,0,86.2,38.6,86.2,86.2S526,500,478.4,500s-86.2-38.6-86.2-86.2S431,327.6,478.4,327.6z M629.2,646.4
	c0,14.2-13.4,25.8-30.2,25.8H357.8c-16.6,0-30.2-11.6-30.2-25.8v-25.8c0-42.8,40.6-77.6,90.4-77.6h6.8c16.6,6.8,34.6,10.8,53.6,10.8
	s37.2-4,53.6-10.8h6.8c50,0,90.4,34.8,90.4,77.6L629.2,646.4L629.2,646.4z"/>
</svg>
