<?xml version="1.0" encoding="utf-8"?>
<!-- Generator: Adobe Illustrator 24.1.1, SVG Export Plug-In . SVG Version: 6.00 Build 0)  -->
<svg version="1.1" id="レイヤー_1" xmlns="http://www.w3.org/2000/svg" xmlns:xlink="http://www.w3.org/1999/xlink" x="0px"
	 y="0px" width="2000px" height="2000px" viewBox="0 0 2000 2000" enable-background="new 0 0 2000 2000" xml:space="preserve">
<path d="M1570.8,741.6c17.6,0,32.4-14.4,32.4-32.4V601.6c0-17.6-14.4-32.4-32.4-32.4h-54V440c0-71.2-58-129.2-129.2-129.2H526
	c-71.2,0-129.2,58-129.2,129.2v1120c0,71.2,58,129.2,129.2,129.2h861.6c71.2,0,129.2-58,129.2-129.2v-129.2h54
	c17.6,0,32.4-14.4,32.4-32.4v-107.6c0-17.6-14.4-32.4-32.4-32.4h-54V1086h54c17.6,0,32.4-14.4,32.4-32.4V946
	c0-17.6-14.4-32.4-32.4-32.4h-54V741.2h54L1570.8,741.6L1570.8,741.6z M956.8,655.2c95.2,0,172.4,77.2,172.4,172.4
	S1052,1000,956.8,1000c-95.2,0-172.4-77.2-172.4-172.4C784.4,732.4,862,655.2,956.8,655.2z M1258.4,1292.8
	c0,28.4-26.8,51.6-60.4,51.6H715.6c-33.2,0-60.4-23.2-60.4-51.6v-51.6c0-85.6,81.2-155.2,180.8-155.2h13.6
	c33.2,13.6,69.2,21.6,107.2,21.6s74.4-8,107.2-21.6h13.6c100,0,180.8,69.6,180.8,155.2L1258.4,1292.8L1258.4,1292.8z"/>
</svg>
