<?xml version="1.0" encoding="utf-8"?>
<!-- Generator: Adobe Illustrator 24.1.1, SVG Export Plug-In . SVG Version: 6.00 Build 0)  -->
<svg version="1.1" id="レイヤー_1" xmlns="http://www.w3.org/2000/svg" xmlns:xlink="http://www.w3.org/1999/xlink" x="0px"
	 y="0px" width="4000px" height="4000px" viewBox="0 0 4000 4000" enable-background="new 0 0 4000 4000" xml:space="preserve">
<path d="M3141.6,1483.2c35.2,0,64.8-28.8,64.8-64.8v-215.2c0-35.2-28.8-64.8-64.8-64.8h-108V880c0-142.4-116-258.4-258.4-258.4H1052
	c-142.4,0-258.4,116-258.4,258.4v2240c0,142.4,116,258.4,258.4,258.4h1723.2c142.4,0,258.4-116,258.4-258.4v-258.4h108
	c35.2,0,64.8-28.8,64.8-64.8v-215.2c0-35.2-28.8-64.8-64.8-64.8h-108V2172h108c35.2,0,64.8-28.8,64.8-64.8V1892
	c0-35.2-28.8-64.8-64.8-64.8h-108v-344.8h108L3141.6,1483.2L3141.6,1483.2z M1913.6,1310.4c190.4,0,344.8,154.4,344.8,344.8
	S2104,2000,1913.6,2000s-344.8-154.4-344.8-344.8S1724,1310.4,1913.6,1310.4z M2516.8,2585.6c0,56.8-53.6,103.2-120.8,103.2h-964.8
	c-66.4,0-120.8-46.4-120.8-103.2v-103.2c0-171.2,162.4-310.4,361.6-310.4h27.2c66.4,27.2,138.4,43.2,214.4,43.2s148.8-16,214.4-43.2
	h27.2c200,0,361.6,139.2,361.6,310.4L2516.8,2585.6L2516.8,2585.6z"/>
</svg>
