<?xml version="1.0" encoding="utf-8"?>
<!-- Generator: Adobe Illustrator 24.1.1, SVG Export Plug-In . SVG Version: 6.00 Build 0)  -->
<svg version="1.1" id="レイヤー_1" xmlns="http://www.w3.org/2000/svg" xmlns:xlink="http://www.w3.org/1999/xlink" x="0px"
	 y="0px" width="10000px" height="10000px" viewBox="0 0 10000 10000" enable-background="new 0 0 10000 10000"
	 xml:space="preserve">
<path d="M7854,3708c88,0,162-72,162-162v-538c0-88-72-162-162-162h-270v-646c0-356-290-646-646-646H2630c-356,0-646,290-646,646
	v5600c0,356,290,646,646,646h4308c356,0,646-290,646-646v-646h270c88,0,162-72,162-162v-538c0-88-72-162-162-162h-270v-862h270
	c88,0,162-72,162-162v-538c0-88-72-162-162-162h-270v-862h270L7854,3708L7854,3708z M4784,3276c476,0,862,386,862,862
	s-386,862-862,862c-476,0-862-386-862-862S4310,3276,4784,3276z M6292,6464c0,142-134,258-302,258H3578c-166,0-302-116-302-258v-258
	c0-428,406-776,904-776h68c166,68,346,108,536,108s372-40,536-108h68c500,0,904,348,904,776L6292,6464L6292,6464z"/>
</svg>
