<?xml version="1.0" encoding="utf-8"?>
<!-- Generator: Adobe Illustrator 24.1.1, SVG Export Plug-In . SVG Version: 6.00 Build 0)  -->
<svg version="1.1" id="レイヤー_1" xmlns="http://www.w3.org/2000/svg" xmlns:xlink="http://www.w3.org/1999/xlink" x="0px"
	 y="0px" width="3000px" height="3000px" viewBox="0 0 3000 3000" enable-background="new 0 0 3000 3000" xml:space="preserve">
<path d="M2356.2,1112.4c26.4,0,48.6-21.6,48.6-48.6V902.4c0-26.4-21.6-48.6-48.6-48.6h-81V660c0-106.8-87-193.8-193.8-193.8H789
	c-106.8,0-193.8,87-193.8,193.8v1680c0,106.8,87,193.8,193.8,193.8h1292.4c106.8,0,193.8-87,193.8-193.8v-193.8h81
	c26.4,0,48.6-21.6,48.6-48.6v-161.4c0-26.4-21.6-48.6-48.6-48.6h-81V1629h81c26.4,0,48.6-21.6,48.6-48.6V1419
	c0-26.4-21.6-48.6-48.6-48.6h-81v-258.6h81V1112.4L2356.2,1112.4z M1435.2,982.8c142.8,0,258.6,115.8,258.6,258.6
	S1578,1500,1435.2,1500s-258.6-115.8-258.6-258.6S1293,982.8,1435.2,982.8z M1887.6,1939.2c0,42.6-40.2,77.4-90.6,77.4h-723.6
	c-49.8,0-90.6-34.8-90.6-77.4v-77.4c0-128.4,121.8-232.8,271.2-232.8h20.4c49.8,20.4,103.8,32.4,160.8,32.4s111.6-12,160.8-32.4
	h20.4c150,0,271.2,104.4,271.2,232.8L1887.6,1939.2L1887.6,1939.2z"/>
</svg>
