<?xml version="1.0" encoding="utf-8"?>
<!-- Generator: Adobe Illustrator 24.1.1, SVG Export Plug-In . SVG Version: 6.00 Build 0)  -->
<svg version="1.1" id="レイヤー_1" xmlns="http://www.w3.org/2000/svg" xmlns:xlink="http://www.w3.org/1999/xlink" x="0px"
	 y="0px" width="15000px" height="15000px" viewBox="0 0 15000 15000" enable-background="new 0 0 15000 15000"
	 xml:space="preserve">
<path d="M11781,5562c132,0,243-108,243-243v-807c0-132-108-243-243-243h-405v-969c0-534-435-969-969-969H3945
	c-534,0-969,435-969,969v8400c0,534,435,969,969,969h6462c534,0,969-435,969-969v-969h405c132,0,243-108,243-243v-807
	c0-132-108-243-243-243h-405V8145h405c132,0,243-108,243-243v-807c0-132-108-243-243-243h-405V5559h405L11781,5562L11781,5562z
	 M7176,4914c714,0,1293,579,1293,1293s-579,1293-1293,1293s-1293-579-1293-1293S6465,4914,7176,4914z M9438,9696
	c0,213-201,387-453,387H5367c-249,0-453-174-453-387v-387c0-642,609-1164,1356-1164h102c249,102,519,162,804,162s558-60,804-162h102
	c750,0,1356,522,1356,1164L9438,9696L9438,9696z"/>
</svg>
